<?xml version="1.0" encoding="utf-8"?>
<!-- Generator: Adobe Illustrator 27.9.0, SVG Export Plug-In . SVG Version: 6.00 Build 0)  -->
<svg version="1.1" id="Layer_1" xmlns="http://www.w3.org/2000/svg" xmlns:xlink="http://www.w3.org/1999/xlink" x="0px" y="0px"
	 viewBox="0 0 300 151" style="enable-background:new 0 0 300 151;" xml:space="preserve">
<style type="text/css">
	.st0{fill:#191919;}
</style>
<g id="Background_for_favicons">
</g>
<path class="st0" d="M175.5,98.1l18.6,51.9h9.5l-21.8-59.1h-12.6L147.4,150c0,0,0,0,0,0h0l0,0h9.5c0,0,5.1-16.7,25-19l-2.5-7.6
	c-5.8,0.6-10.7,2.7-14.9,5.6L175.5,98.1z"/>
<path class="st0" d="M300,150h-10c0-77.3-62.7-140-140-140S10,72.7,10,150H0C0,67.2,67.2,0,150,0S300,67.2,300,150z"/>
<path class="st0" d="M185.3,130.7"/>
<path class="st0" d="M34.7,150V90.9h8.7v50.8h19.3v8.3H34.7z"/>
<path class="st0" d="M68.4,99.2v-8.3h9v8.3H68.4z M68.7,150v-43h8.2v43H68.7z"/>
<path class="st0" d="M128.1,150c-3.9,0-7.5-0.9-10.6-2.8c-3.2-1.9-5.7-4.5-7.5-7.8c-1.8-3.3-2.8-7.1-2.8-11.4c0-4.2,0.9-8,2.8-11.3
	c1.8-3.3,4.4-5.9,7.5-7.8c3.2-1.9,6.7-2.8,10.6-2.8c3.7,0,7.1,0.9,10.2,2.7c3.1,1.8,5.5,4.3,7.3,7.4c1.8,3.1,2.6,6.7,2.6,10.6
	c0,1,0,1.9-0.1,2.7c-0.1,0.8-0.2,1.4-0.3,1.7h-32.4c0.3,2.3,1,4.3,2.2,6.1c1.2,1.8,2.7,3.1,4.5,4.1c1.8,1,3.8,1.4,6,1.4
	c2.4,0,4.4-0.5,6.2-1.6c1.8-1,3.2-2.4,4.1-4.2h8.5c-0.8,2.5-2.1,4.7-3.8,6.6c-1.7,1.9-3.8,3.5-6.3,4.6
	C134.2,149.4,131.3,150,128.1,150z M139.9,124.8c-0.1-2.2-0.7-4.2-1.8-5.9c-1.1-1.8-2.5-3.2-4.2-4.2c-1.8-1-3.7-1.5-5.8-1.5
	c-2.2,0-4.3,0.5-6.1,1.5c-1.8,1-3.3,2.4-4.4,4.1c-1.1,1.7-1.8,3.7-2.2,6H139.9z"/>
<path class="st0" d="M214.1,112.1c0.8-1.3,1.8-2.3,3-2.9c1.2-0.7,2.8-1,4.8-1h7.5v7.7h-6.7c-2.8,0-5,0.8-6.5,2.3
	c-1.5,1.5-2.3,3.7-2.3,6.6V150h-8.2v-41.9h7.1L214.1,112.1z"/>
<path class="st0" d="M250.3,150c-3.9,0-7.5-0.9-10.6-2.8c-3.2-1.9-5.7-4.5-7.5-7.8c-1.8-3.3-2.8-7.1-2.8-11.4c0-4.2,0.9-8,2.8-11.3
	c1.8-3.3,4.4-5.9,7.5-7.8c3.2-1.9,6.7-2.8,10.6-2.8c3.4,0,6.5,0.7,9.2,2c2.7,1.3,4.9,3.1,6.6,5.5c1.7,2.3,2.9,4.9,3.5,7.9h-8.3
	c-0.7-2.4-2-4.2-4-5.6c-1.9-1.4-4.3-2.1-7.1-2.1c-2.3,0-4.4,0.6-6.3,1.8c-1.9,1.2-3.5,2.9-4.6,5c-1.1,2.2-1.7,4.7-1.7,7.5
	c0,2.9,0.6,5.4,1.7,7.6c1.1,2.2,2.6,3.9,4.6,5c1.9,1.2,4,1.8,6.3,1.8c2.9,0,5.2-0.7,7.1-2.1c1.9-1.4,3.2-3.4,3.9-5.9h8.3
	c-0.6,3-1.8,5.7-3.5,8.1c-1.7,2.4-4,4.2-6.6,5.5C256.8,149.3,253.7,150,250.3,150z"/>
<path class="st0" d="M89.6,150v-35.2h-6.9V107h6.9l0-7.4c0-2.7,0.8-4.8,2.4-6.4c1.6-1.6,3.9-2.4,6.7-2.4h8.4v7.6h-6.4
	c-0.9,0-1.6,0.2-2.1,0.7c-0.5,0.5-0.7,1.1-0.7,2l0,5.9h9.2v7.7H98V150H89.6z"/>
<path class="st0" d="M169.1,98.1"/>
</svg>
